<?xml version="1.0" encoding="UTF-8" standalone="no"?>
<!-- Creator: CorelDRAW 2020 (64-Bit) -->

<svg
   xml:space="preserve"
   width="5651.21386719"
   height="507.464569092"
   version="1.1"
   style="clip-rule:evenodd;fill-rule:evenodd;image-rendering:optimizeQuality;shape-rendering:geometricPrecision;text-rendering:geometricPrecision"
   viewBox="0 0 5651.21386719 507.464569092"
   id="svg498"
   sodipodi:docname="bannerExo.svg"
   inkscape:version="1.3.2 (091e20ef0f, 2023-11-25)"
   inkscape:export-filename="logoBadge.png"
   inkscape:export-xdpi="96"
   inkscape:export-ydpi="96"
   xmlns:inkscape="http://www.inkscape.org/namespaces/inkscape"
   xmlns:sodipodi="http://sodipodi.sourceforge.net/DTD/sodipodi-0.dtd"
   xmlns:xlink="http://www.w3.org/1999/xlink"
   xmlns="http://www.w3.org/2000/svg"
   xmlns:svg="http://www.w3.org/2000/svg"><sodipodi:namedview
   id="namedview500"
   pagecolor="#000000"
   bordercolor="#000000"
   borderopacity="0.25"
   inkscape:showpageshadow="2"
   inkscape:pageopacity="0"
   inkscape:pagecheckerboard="0"
   inkscape:deskcolor="#3c3c3c"
   showgrid="false"
   inkscape:zoom="0.149520874023"
   inkscape:cx="3049.74140219"
   inkscape:cy="1742.2316563"
   inkscape:window-width="1920"
   inkscape:window-height="1011"
   inkscape:window-x="0"
   inkscape:window-y="0"
   inkscape:window-maximized="1"
   inkscape:current-layer="layer4"
   showguides="false"
   inkscape:lockguides="false" />
 <defs
   id="defs458"><linearGradient
     id="linearGradient6"
     gradientUnits="userSpaceOnUse"
     x1="423.649993896"
     y1="797.390014648"
     x2="1601.56005859"
     y2="839.349975586"
     inkscape:label="text">
   <stop
   offset="0"
   style="stop-color:#a0a0a0;stop-opacity:1;"
   id="stop4" />
   <stop
   offset="0.4600000083"
   style="stop-color:#ffffff;stop-opacity:1;"
   id="stop5" />
   <stop
   offset="1"
   style="stop-color:#a0a0a0;stop-opacity:1;"
   id="stop6" />
  </linearGradient><rect
     x="-1710.8737793"
     y="1362.97290039"
     width="2618.59423828"
     height="632.737976074"
     id="rect4" /><linearGradient
     id="linearGradient4618"
     inkscape:swatch="solid"><stop
       style="stop-color:#ffffff;stop-opacity:1;"
       offset="0"
       id="stop4616" /></linearGradient><linearGradient
     id="linearGradient78316"
     gradientUnits="userSpaceOnUse"
     x1="857.130004883"
     y1="789.369995117"
     x2="868.309997559"
     y2="1087.18994141"
     spreadMethod="pad">
   <stop
   offset="0"
   style="stop-opacity:1; stop-color:#FF8B00"
   id="stop78308" /><stop
   offset="0.19637898"
   style="stop-color:#ed572a;stop-opacity:1;"
   id="stop78310" /><stop
   offset="0.67111236"
   style="stop-color:#e43d3f;stop-opacity:1;"
   id="stop84364" />
   
   <stop
   offset="1"
   style="stop-color:#ac340f;stop-opacity:1;"
   id="stop78314" />
  </linearGradient><linearGradient
     id="linearGradient47350"
     gradientUnits="userSpaceOnUse"
     x1="590.820007324"
     y1="970.989990234"
     x2="653.270019531"
     y2="1036.17004395">
   <stop
   offset="0"
   style="stop-color:#1eb6c8;stop-opacity:1;"
   id="stop47346" /><stop
   offset="0.47540298"
   style="stop-color:#21a4c5;stop-opacity:1;"
   id="stop67958" />
   <stop
   offset="1"
   style="stop-color:#2492c2;stop-opacity:1;"
   id="stop47348" />
  </linearGradient><style
     type="text/css"
     id="style364">
   <![CDATA[
    .fil0 {fill:white}
    .fil1 {fill:black;fill-rule:nonzero}
    .fil2 {fill:white;fill-rule:nonzero}
    .fil5 {fill:url(#id0)}
    .fil12 {fill:url(#id1)}
    .fil15 {fill:url(#id2)}
    .fil11 {fill:url(#id3)}
    .fil10 {fill:url(#id4)}
    .fil7 {fill:url(#id5)}
    .fil16 {fill:url(#id6)}
    .fil13 {fill:url(#id7)}
    .fil6 {fill:url(#id8)}
    .fil14 {fill:url(#id9)}
    .fil9 {fill:url(#id10)}
    .fil8 {fill:url(#id11)}
    .fil4 {fill:url(#id12);fill-rule:nonzero}
    .fil3 {fill:url(#id13);fill-rule:nonzero}
   ]]>
  </style><linearGradient
     id="id1"
     gradientUnits="userSpaceOnUse"
     x1="916.320007324"
     y1="780.729980469"
     x2="782.900024414"
     y2="841.260009766"
     gradientTransform="translate(-573.60005,-744.03948)">
   <stop
   offset="0"
   style="stop-opacity:1; stop-color:#CC3D1D"
   id="stop377" />
   <stop
   offset="1"
   style="stop-opacity:1; stop-color:#F36A1C"
   id="stop379" />
  </linearGradient><linearGradient
     id="id2"
     gradientUnits="userSpaceOnUse"
     x1="681.869995117"
     y1="1005.08001709"
     x2="825.799987793"
     y2="1068.08996582"
     gradientTransform="translate(-573.60005,-744.03948)">
   <stop
   offset="0.14425844"
   style="stop-color:#16c8d5;stop-opacity:1;"
   id="stop382" />
   <stop
   offset="0.18680455"
   style="stop-color:#1eb6c8;stop-opacity:1;"
   id="stop384" /><stop
   offset="0.43038145"
   style="stop-color:#0a7d8f;stop-opacity:1;"
   id="stop50558" />
   <stop
   offset="1"
   style="stop-opacity:1; stop-color:#1AAECE"
   id="stop386" />
  </linearGradient><linearGradient
     id="id3"
     gradientUnits="userSpaceOnUse"
     x1="978.719970703"
     y1="1028.43005371"
     x2="843.440002441"
     y2="1004.34002686"
     gradientTransform="translate(-573.60005,-744.03948)">
   <stop
   offset="0"
   style="stop-color:#3c066b;stop-opacity:1;"
   id="stop389" /><stop
   offset="0.78043771"
   style="stop-color:#ac340f;stop-opacity:1;"
   id="stop84976" /><stop
   offset="1"
   style="stop-color:#cc3d1d;stop-opacity:1;"
   id="stop84854" />
   
  </linearGradient><linearGradient
     id="id5"
     gradientUnits="userSpaceOnUse"
     x1="874.969970703"
     y1="936.400024414"
     x2="764.960021973"
     y2="1245.45996094"
     gradientTransform="translate(-573.60005,-744.03948)">
   <stop
   offset="0"
   style="stop-color:#00ffff;stop-opacity:1;"
   id="stop401" /><stop
   offset="0.41812995"
   style="stop-color:#19b1cf;stop-opacity:1;"
   id="stop19991" />
   <stop
   offset="0.66000003"
   style="stop-color:#1a6096;stop-opacity:1;"
   id="stop403" />
   <stop
   offset="1"
   style="stop-color:#0000ff;stop-opacity:1;"
   id="stop405" />
  </linearGradient><linearGradient
     id="id6"
     gradientUnits="userSpaceOnUse"
     x1="873.650024414"
     y1="885.229980469"
     x2="669.179992676"
     y2="963.059997559"
     gradientTransform="translate(-573.60005,-744.03948)">
   <stop
   offset="0.23846726"
   style="stop-opacity:1; stop-color:#6B0E56"
   id="stop408" /><stop
   offset="0.63752478"
   style="stop-color:#ac340f;stop-opacity:1;"
   id="stop84727" />
   <stop
   offset="1"
   style="stop-color:#e43d3f;stop-opacity:1;"
   id="stop410" />
  </linearGradient><linearGradient
     id="id7"
     gradientUnits="userSpaceOnUse"
     x1="846.210021973"
     y1="964.489990234"
     x2="755.179992676"
     y2="949.849975586"
     gradientTransform="translate(-573.60005,-744.03948)">
   <stop
   offset="0"
   style="stop-color:#19b1cf;stop-opacity:1;"
   id="stop413" /><stop
   offset="0.5"
   style="stop-color:#0cd8e7;stop-opacity:1;"
   id="stop72727" />
   <stop
   offset="1"
   style="stop-color:#06e9ff;stop-opacity:1;"
   id="stop415" />
  </linearGradient><linearGradient
     id="id8"
     gradientUnits="userSpaceOnUse"
     x1="1202.65002441"
     y1="789.880004883"
     x2="1199.90002441"
     y2="1235.07995605">
   <stop
   offset="0"
   style="stop-opacity:1; stop-color:#757575"
   id="stop418" />
   <stop
   offset="0.219608"
   style="stop-opacity:1; stop-color:#F0F0F0"
   id="stop420" />
   <stop
   offset="0.521569"
   style="stop-opacity:1; stop-color:#7D7D7D"
   id="stop422" />
   <stop
   offset="0.780392"
   style="stop-opacity:1; stop-color:#EDEDED"
   id="stop424" />
   <stop
   offset="1"
   style="stop-opacity:1; stop-color:#2B2B2B"
   id="stop426" />
  </linearGradient><linearGradient
     id="id9"
     gradientUnits="userSpaceOnUse"
     x1="847.119995117"
     y1="1238.89001465"
     x2="851.140014648"
     y2="1119.61999512"
     gradientTransform="translate(-573.60005,-744.03948)">
   <stop
   offset="0"
   style="stop-opacity:1; stop-color:#2D166E"
   id="stop429" />
   <stop
   offset="1"
   style="stop-opacity:1; stop-color:#2492C4"
   id="stop431" />
  </linearGradient><linearGradient
     id="id10"
     gradientUnits="userSpaceOnUse"
     x1="603.91998291"
     y1="796.549987793"
     x2="656.979980469"
     y2="841.41998291"
     gradientTransform="translate(-573.60005,-744.03948)">
   <stop
   offset="0"
   style="stop-opacity:1; stop-color:#FF8B00"
   id="stop434" /><stop
   offset="0.75"
   style="stop-color:#dc3b42;stop-opacity:1;"
   id="stop84486" />
   
  </linearGradient><linearGradient
     id="id11"
     gradientUnits="userSpaceOnUse"
     x1="590.820007324"
     y1="970.989990234"
     x2="653.270019531"
     y2="1036.17004395"
     gradientTransform="translate(-573.60005,-744.03948)">
   <stop
   offset="0"
   style="stop-color:#00ffff;stop-opacity:1;"
   id="stop439" /><stop
   offset="0.5"
   style="stop-color:#1fa1c9;stop-opacity:1;"
   id="stop25963" />
   <stop
   offset="1"
   style="stop-color:#1f68c9;stop-opacity:1;"
   id="stop441" />
  </linearGradient><linearGradient
     id="id14"
     gradientUnits="userSpaceOnUse"
     x1="423.649993896"
     y1="797.390014648"
     x2="1601.56005859"
     y2="839.349975586">
   <stop
   offset="0"
   style="stop-color:#b2b2b2;stop-opacity:1;"
   id="stop451" />
   <stop
   offset="0.46000001"
   style="stop-color:#fafafa;stop-opacity:1;"
   id="stop453" />
   <stop
   offset="1"
   style="stop-opacity:1; stop-color:#B8B8B8"
   id="stop455" />
  </linearGradient><linearGradient
     inkscape:collect="always"
     xlink:href="#id8"
     id="linearGradient47150"
     x1="976.929992676"
     y1="1001.3449707"
     x2="1417.83996582"
     y2="1001.3449707"
     gradientUnits="userSpaceOnUse"
     gradientTransform="translate(664.50828,-740.44119)" /><linearGradient
     inkscape:collect="always"
     xlink:href="#linearGradient47350"
     id="linearGradient47342"
     x1="814.380004883"
     y1="1087.82910156"
     x2="890.98046875"
     y2="1087.82910156"
     gradientUnits="userSpaceOnUse"
     gradientTransform="translate(-573.59943,-744.03858)" /><linearGradient
     inkscape:collect="always"
     xlink:href="#linearGradient78316"
     id="linearGradient78296"
     gradientUnits="userSpaceOnUse"
     x1="857.130004883"
     y1="789.369995117"
     x2="868.309997559"
     y2="1087.18994141"
     gradientTransform="translate(-573.60005,-744.03948)" /><linearGradient
     inkscape:collect="always"
     xlink:href="#id8"
     id="linearGradient8849"
     gradientUnits="userSpaceOnUse"
     x1="1202.65002441"
     y1="789.880004883"
     x2="1199.90002441"
     y2="1235.07995605"
     gradientTransform="translate(664.50828,-740.44119)" /><linearGradient
     inkscape:collect="always"
     xlink:href="#id14"
     id="linearGradient5"
     x1="-1694.85742188"
     y1="1499.49621582"
     x2="-54.8740310669"
     y2="1499.49621582"
     gradientUnits="userSpaceOnUse" /><rect
     x="-1710.8737793"
     y="1362.97290039"
     width="2618.59423828"
     height="632.737976074"
     id="rect23" /><linearGradient
     inkscape:collect="always"
     xlink:href="#linearGradient6"
     id="linearGradient23"
     gradientUnits="userSpaceOnUse"
     x1="-1694.85742188"
     y1="1499.49621582"
     x2="-236.216964722"
     y2="1499.49621582" /><rect
     x="-1710.8737793"
     y="1362.97290039"
     width="2618.59423828"
     height="632.737976074"
     id="rect24" /><linearGradient
     inkscape:collect="always"
     xlink:href="#linearGradient6"
     id="linearGradient24"
     gradientUnits="userSpaceOnUse"
     x1="-1694.85742188"
     y1="1499.49621582"
     x2="-1163.54711914"
     y2="1494.1887207" /><rect
     x="-1710.8737793"
     y="1362.97290039"
     width="2618.59423828"
     height="632.737976074"
     id="rect25" /><linearGradient
     inkscape:collect="always"
     xlink:href="#linearGradient6"
     id="linearGradient25"
     gradientUnits="userSpaceOnUse"
     x1="-1694.85742188"
     y1="1499.49621582"
     x2="412.595306396"
     y2="1499.49621582" /></defs>
 <g
   inkscape:groupmode="layer"
   id="layer5"
   inkscape:label="Rectangles"
   style="clip-rule:evenodd;display:none;fill-rule:evenodd;image-rendering:optimizeQuality;shape-rendering:geometricPrecision;text-rendering:geometricPrecision"
   transform="translate(-1.25408664708e-5,-0.767563839513)"
   sodipodi:insensitive="true"><g
     inkscape:groupmode="layer"
     id="layer6"
     inkscape:label="Page Aligners"
     style="clip-rule:evenodd;display:inline;fill-rule:evenodd;image-rendering:optimizeQuality;shape-rendering:geometricPrecision;text-rendering:geometricPrecision"><rect
       style="clip-rule:evenodd;display:inline;opacity:0.500271;fill:#00ffff;fill-opacity:1;fill-rule:evenodd;stroke:none;stroke-width:0;image-rendering:optimizeQuality;shape-rendering:geometricPrecision;text-rendering:geometricPrecision"
       id="rect1824"
       width="440.909973145"
       height="509"
       x="403.33001709"
       y="0"
       inkscape:label="Rectangle A" /><rect
       style="clip-rule:evenodd;display:none;opacity:0.500271;fill:#ff01c9;fill-opacity:1;fill-rule:evenodd;stroke:none;stroke-width:0;stroke-dasharray:none;stroke-opacity:1;image-rendering:optimizeQuality;shape-rendering:geometricPrecision;text-rendering:geometricPrecision"
       id="rect7506"
       width="844.239990234"
       height="509"
       x="-0.252875596285"
       y="0"
       inkscape:label="Rectangle S" /><rect
       style="clip-rule:evenodd;display:none;opacity:1;fill:#00ffff;fill-opacity:1;fill-rule:evenodd;stroke:none;stroke-width:0;image-rendering:optimizeQuality;shape-rendering:geometricPrecision;text-rendering:geometricPrecision"
       id="rect3853"
       width="440.909973145"
       height="488.360992432"
       x="403.33001709"
       y="10.3195037842"
       inkscape:label="Rectangle A Aligner" /></g><g
     inkscape:groupmode="layer"
     id="layer7"
     inkscape:label="Text Aligners"
     style="clip-rule:evenodd;display:inline;fill-rule:evenodd;image-rendering:optimizeQuality;shape-rendering:geometricPrecision;text-rendering:geometricPrecision"><rect
       style="clip-rule:evenodd;display:inline;opacity:0.768922;fill:#00ffff;fill-rule:evenodd;stroke-width:0;image-rendering:optimizeQuality;shape-rendering:geometricPrecision;text-rendering:geometricPrecision"
       id="rect2237"
       width="150"
       height="161.714324951"
       x="402.813934326"
       y="224.49130249"
       inkscape:label="Salmon " /><rect
       style="clip-rule:evenodd;display:inline;opacity:0.727375;fill:#00ffff;fill-rule:evenodd;stroke-width:0;image-rendering:optimizeQuality;shape-rendering:geometricPrecision;text-rendering:geometricPrecision"
       id="rect4053"
       width="231.800003052"
       height="338.878540039"
       x="2014.4967041"
       y="157.319290161"
       inkscape:label="Salmon Arm" /><rect
       style="clip-rule:evenodd;display:inline;opacity:0.768922;fill:#00ffff;fill-rule:evenodd;stroke-width:0;image-rendering:optimizeQuality;shape-rendering:geometricPrecision;text-rendering:geometricPrecision"
       id="rect3428"
       width="150"
       height="189.387176514"
       x="2633.83276367"
       y="196.818450928"
       inkscape:label="Arm" /><rect
       style="clip-rule:evenodd;display:inline;opacity:0.738753;fill:#00ffff;fill-rule:evenodd;stroke-width:0;image-rendering:optimizeQuality;shape-rendering:geometricPrecision;text-rendering:geometricPrecision"
       id="rect10097"
       width="231.800003052"
       height="189.396102905"
       x="3308.91870117"
       y="196.809524536"
       inkscape:label="Jiu-Jitsu" /></g></g><g
   inkscape:groupmode="layer"
   id="layer1"
   inkscape:label="Suplexer"
   style="display:inline"
   sodipodi:insensitive="true"
   transform="translate(-1.25408664708e-5,-0.767563839513)"><path
     class="fil7"
     d="m 84.099953,433.76051 c 58.709997,27.16 113.949997,29.6 151.629997,18.49 69.48,-20.48 60.38,-81.78 5.22,-108.46 -38.39,-18.56 -92.39,-18.95 -125.78,-29.03 -49.029997,-14.79 -51.089997,-52.28 -30.949997,-76.71 18.629997,-22.58 68.269997,-31.55 92.349997,-42.81 35.7,-16.69 64.67,-40.07 36.1,-68.28 33.58,-22.76 60.82,16.59 48.18,53.87 -5.74,16.95 -17.67,33.72 -33.44,48.93 43.24,14.29 77.45,35.6 102.56,60.05 33.79,32.9 49.39,65.07 51.69,94.15 9.17,116.03 -172.4,185.3 -297.559997,49.8 z"
     id="path477"
     style="clip-rule:evenodd;display:inline;fill:url(#id5);fill-rule:evenodd;image-rendering:optimizeQuality;shape-rendering:geometricPrecision;text-rendering:geometricPrecision"
     inkscape:label="Main Body" /><path
     class="fil8"
     d="m 46.169957,213.3805 c -22.92,-2.2 -43.4800027,16.72 -45.93000248,42.25 -2.45000022,25.54 14.13999948,48.02 37.06000248,50.22 8.95,0.85 17.54,-1.51 24.829996,-6.23 -14.009996,-22.23 -4.69,-53.17 10,-72.48 -6.59,-7.66 -15.63,-12.77 -25.959996,-13.76 z"
     id="path479"
     style="clip-rule:evenodd;display:inline;fill:url(#id11);fill-rule:evenodd;image-rendering:optimizeQuality;shape-rendering:geometricPrecision;text-rendering:geometricPrecision"
     inkscape:label="Head" /><path
     class="fil14"
     d="m 84.099953,433.76051 c 58.709997,27.16 113.949997,29.6 151.629997,18.49 48.37,-14.26 58.64,-48.3 41.81,-76.67 l 39.84,-3.04 c 46.37,145.17 -152.26,127.37 -233.279997,61.22 z"
     id="path491"
     style="clip-rule:evenodd;display:inline;fill:url(#id9);fill-rule:evenodd;image-rendering:optimizeQuality;shape-rendering:geometricPrecision;text-rendering:geometricPrecision"
     inkscape:label="Shading Bottom" /><path
     d="m 263.00995,312.00052 c 0,0 39.18011,21.6518 54.37109,60.541 l -39.83985,3.039 c -12.6281,-21.5983 -36.76062,-31.8691 -36.76062,-31.8691 z"
     id="path47142"
     style="display:inline;opacity:0.665;fill:url(#linearGradient47342);fill-opacity:1"
     inkscape:label="Shading Middle" /><path
     class="fil15"
     d="m 240.77995,343.71051 c -38.37,-18.48 -92.27,-18.89 -125.61,-28.95 -38.659997,-11.66 -48.109997,-37.43 -40.509997,-59.78 l 46.279997,2.66 c 0,0 -11.12,24.71 54.36,30.89 65.47,6.17 87.71,23.47 87.71,23.47 z"
     id="path493"
     style="clip-rule:evenodd;display:inline;opacity:0.544;fill:url(#id2);fill-rule:evenodd;image-rendering:optimizeQuality;shape-rendering:geometricPrecision;text-rendering:geometricPrecision"
     inkscape:label="Shading Top" /><path
     class="fil13"
     d="m 177.34995,194.87052 c 35.34,-16.66 63.68,-39.9 35.32,-67.91 45.85,-2.52 39.63,69.94 -26.85,89.78 z"
     id="path489"
     style="clip-rule:evenodd;display:inline;fill:url(#id7);fill-rule:evenodd;image-rendering:optimizeQuality;shape-rendering:geometricPrecision;text-rendering:geometricPrecision"
     inkscape:label="Shading Arm" /></g><g
   inkscape:groupmode="layer"
   id="layer2"
   inkscape:label="Suplexee"
   style="display:inline"
   sodipodi:insensitive="true"
   transform="translate(-1.25408664708e-5,-0.767563839513)"><path
     class="fil10"
     d="m 395.61995,85.140515 c -67.48,-69.029996 -217.77,-38.09 -207.36,15.140005 3.94,20.15998 34.05,43.59998 -1.05,69.65998 -35.18,26.13 -75.76,22.64 -102.639997,44.73 C 14.529954,-26.729481 335.40995,-54.749481 395.61995,85.140515 Z m -113.53,80.829985 c 66.17,22.32 143.53,108.46 114.41,209.27 -4.84,-66.17 -65.38,-122.97 -133.88,-154.48 7.35,-12.09 16.7,-30.79 19.47,-54.79 z"
     id="path483"
     style="clip-rule:evenodd;display:inline;fill:url(#linearGradient78296);fill-opacity:1;fill-rule:evenodd;image-rendering:optimizeQuality;shape-rendering:geometricPrecision;text-rendering:geometricPrecision"
     inkscape:label="Main Body" /><path
     class="fil9"
     d="m 63.759953,43.030515 c -23.479996,-3.51 -46.58,14.15 -51.589999,39.43 -5.0099997,25.289985 9.960003,48.629985 33.440003,52.129985 3.95,0.59 7.9,0.58 11.749996,0.03 2.26,-28.78 11.1,-56.249985 28.55,-80.299985 -5.79,-5.91 -13.38,-9.99 -22.15,-11.29 z"
     id="path481"
     inkscape:label="Head"
     style="clip-rule:evenodd;display:inline;fill:url(#id10);fill-rule:evenodd;image-rendering:optimizeQuality;shape-rendering:geometricPrecision;text-rendering:geometricPrecision" /><path
     class="fil11"
     d="m 396.49995,375.24052 c 0,0 22.13,-109.56 -121.14,-180.82 -3.87,10.71 -8.62,19.56 -12.74,26.34 68.5,31.51 129.04,88.31 133.88,154.48 z"
     id="path485"
     style="clip-rule:evenodd;display:inline;fill:url(#id3);fill-rule:evenodd;image-rendering:optimizeQuality;shape-rendering:geometricPrecision;text-rendering:geometricPrecision"
     inkscape:label="Shading Leg" /><path
     class="fil12"
     d="m 395.61995,85.140515 c -67.48,-69.029996 -217.77,-38.09 -207.36,15.140005 l -49.38,-20.970005 c 37.71,-81.5699942 206.27,-73.2699942 256.74,5.83 z"
     id="path487"
     style="clip-rule:evenodd;display:inline;fill:url(#id1);fill-rule:evenodd;image-rendering:optimizeQuality;shape-rendering:geometricPrecision;text-rendering:geometricPrecision"
     inkscape:label="Shading Arm" /><path
     class="fil16"
     d="m 187.85995,97.280515 0.01,0.11 -0.03,-0.11 z m 0.82,4.819985 c 5.27,19.74 32.58,42.56 -1.47,67.84 -35.18,26.13 -75.76,22.64 -102.639997,44.73 -2.76,-9.51 -4.85,-18.65 -6.43,-27.5 25.619997,-21.73 69.969997,-22.28 89.409997,-32.39 23.97,-12.48 22.7,-41.25 21.13,-52.68 z"
     id="path495"
     style="clip-rule:evenodd;display:inline;fill:url(#id6);fill-rule:evenodd;image-rendering:optimizeQuality;shape-rendering:geometricPrecision;text-rendering:geometricPrecision"
     inkscape:label="Shading Body" /></g><g
   inkscape:groupmode="layer"
   id="layer3"
   inkscape:label="A"
   style="display:inline"
   transform="translate(602.081517073,-6.84852363931)"><path
     class="fil5"
     d="m 1728.9682,502.27879 c 117.79,0 235.58,0 353.38,0 l -106.76,-233.76 -113.7,-248.989975 -220.45,482.749975 h 58.47 c 53.99,-118.24 107.98,-236.48 161.98,-354.71 l 137.6,301.32 h -187.67 l 12.13,-26.56 134.28,-0.17 -17.24,-37.74 -79.1,-173.22 -29.24,64.02 c 12.3,26.92 30.43,66.64 42.73,93.56 -24.59,0 -60.97,0.24 -85.56,0.24 -20.28,44.42 -40.57,88.84 -60.85,133.26 z"
     id="path473"
     style="clip-rule:evenodd;display:inline;fill:url(#linearGradient47150);fill-opacity:1;fill-rule:evenodd;image-rendering:optimizeQuality;shape-rendering:geometricPrecision;text-rendering:geometricPrecision"
     inkscape:label="A Outline" /><path
     class="fil6"
     d="m 1794.7282,376.64879 c -17.96,39.33 -35.92,78.66 -53.88,117.99 109.87,0 219.74,0 329.61,0 l -101.81,-222.95 -106.76,-233.779979 -208.57,456.729979 h 41.68 c 53.32,-116.75 106.63,-233.5 159.94,-350.24 l 6.95,-15.21 149.49,327.34 h -211.44 l 19.1,-41.83 127.31,-0.16 -84.46,-184.95 -20.84,45.63 c 13.76,30.13 27.51,60.26 41.27,90.38 l 4.94,10.81 h -11.88 c -26.89,0 -53.77,0.22 -80.65,0.24 z"
     id="path475"
     inkscape:label="A"
     style="clip-rule:evenodd;display:inline;fill:url(#linearGradient8849);fill-rule:evenodd;image-rendering:optimizeQuality;shape-rendering:geometricPrecision;text-rendering:geometricPrecision" /></g>
<g
   inkscape:groupmode="layer"
   id="layer4"
   inkscape:label="Text"
   transform="translate(-1.25408664708e-5,-0.767563839513)"><text
     xml:space="preserve"
     id="text3"
     style="font-style:normal;font-variant:normal;font-weight:normal;font-stretch:normal;font-size:293.333px;font-family:Exo;-inkscape-font-specification:'Exo, Normal';font-variant-ligatures:discretionary-ligatures;font-variant-caps:small-caps;font-variant-numeric:normal;font-variant-east-asian:normal;letter-spacing:125px;word-spacing:-1px;writing-mode:lr-tb;white-space:pre;shape-inside:url(#rect4);display:none;opacity:1;fill:url(#linearGradient5);stroke-width:5;stroke-linecap:square;stroke-linejoin:round"
     inkscape:label="almon"
     transform="translate(2250.48699585,-1249.27339307)"><tspan
       x="-1710.87304688"
       y="1634.30568848"
       id="tspan2">ALMON</tspan></text><path
     d="m -1633.03297852,1622.06888379 34.84269727,-88.21874414 31.87736133,88.21874414 z m -64.86672363,83.77074023 h 30.02402637 l 23.7226875,-56.34138281 h 87.10674316 l 22.24001953,56.34138281 h 30.02402637 l -79.32273633,-211.28018554 h -27.42935742 z m 329.74404053,-31.87736132 c 0,20.38668457 12.23201074,31.87736132 31.87736133,31.87736132 h 109.71742968 v -27.42935742 h -100.08008789 c -8.89600781,0 -14.45601269,-0.37066699 -14.0853457,-10.00800879 v -173.84281933 h -27.42935742 z m 268.95476074,31.87736132 h 25.94668945 l 17.42134864,-163.83481054 61.5307207,163.83481054 h 23.7226875 l 60.789386719,-163.46414355 15.19734668,163.46414355 h 26.688023437 l -20.016017578,-211.65085254 h -32.989362305 l -61.901387695,165.68814551 -62.272054688,-165.68814551 h -33.73069629 z m 389.791906251,-105.64009277 c 0,-81.91740527 29.653359375,-80.06407031 64.866723633,-80.06407031 41.514703125,0 65.237390625,-0.37066699 65.237390625,79.32273633 0,80.4347373 -30.394693359,80.80540429 -65.237390625,80.80540429 -44.10937207,0 -64.866723633,-6.67200586 -64.866723633,-80.06407031 z m -27.429357422,1.85333496 c 0,92.29608106 32.618695313,105.64009277 92.296081055,105.64009277 62.272054687,0 92.666748047,-17.42134863 92.666748047,-108.23476171 0,-94.89075 -32.248028321,-106.75209375 -92.666748047,-106.75209375 -61.530720703,0 -92.296081055,18.9040166 -92.296081055,109.34676269 z m 329.002575684,103.78675781 h 27.429357422 v -162.35214257 l 118.242770508,162.35214257 h 25.946689453 v -211.65085254 h -27.05869043 v 160.86947461 l -118.242770508,-160.86947461 h -26.317356445 z"
     id="text23"
     style="font-size:370.667px;font-family:Exo;-inkscape-font-specification:'Exo, Normal';font-variant-ligatures:discretionary-ligatures;font-variant-caps:small-caps;letter-spacing:94px;word-spacing:-1px;white-space:pre;fill:url(#linearGradient23);stroke-width:5;stroke-linecap:square;stroke-linejoin:round"
     inkscape:label="almon"
     transform="translate(2250.71363647,-1321.48733154)"
     aria-label="almon" /><path
     d="m -1661.20366992,1595.38086035 v -73.76273144 h 72.65073047 c 2.59466894,0 29.28269238,-1.48266797 29.28269238,32.61869531 0,36.32536523 -16.30934766,41.14403613 -29.28269238,41.14403613 z m -27.42935742,110.45876367 h 27.42935742 v -88.96007812 c 0.37066699,0.74133398 49.29870996,5.18933789 60.41871972,5.93067187 l 47.445375,83.02940625 h 31.13602735 l -50.41071094,-86.36540918 c 30.76536035,-2.59466894 40.77336914,-33.36002929 40.77336914,-65.60805761 0,-49.66937696 -34.47203027,-59.67738575 -56.7120498,-59.67738575 h -100.08008789 z m 293.78973144,0 h 25.94668945 l 17.42134864,-163.83481054 61.5307207,163.83481054 h 23.7226875 l 60.78938672,-163.46414355 15.19734668,163.46414355 h 26.68802344 l -20.01601758,-211.65085254 h -32.98936231 l -61.90138769,165.68814551 -62.27205469,-165.68814551 h -33.73069629 z"
     id="text24"
     style="font-size:370.667px;font-family:Exo;-inkscape-font-specification:'Exo, Normal';font-variant-ligatures:discretionary-ligatures;font-variant-caps:small-caps;letter-spacing:94px;word-spacing:-1px;white-space:pre;fill:url(#linearGradient24);stroke-width:5;stroke-linecap:square;stroke-linejoin:round"
     inkscape:label="rm"
     transform="translate(4472.46579102,-1319.63399658)"
     aria-label="rm" /><path
     d="m -1697.89970215,1698.05561719 c 19.2746836,12.60267773 58.93605176,13.71467871 78.58140235,1.11200097 18.5333496,-11.86134375 19.27468359,-37.06669921 19.27468359,-54.48804785 v -210.16818457 h -27.42935742 v 210.16818457 c -0.37066699,51.52271192 -41.51470313,40.03203516 -68.94406055,33.3600293 z m 243.74918274,7.78400683 h 27.42935742 v -211.28018554 h -27.42935742 z m 173.32298279,-96.37341797 c -0.37066699,88.58941114 38.17870019,98.22675293 88.58941113,98.22675293 44.85070606,0 86.73607617,-11.86134375 86.73607617,-98.22675293 v -114.90676757 h -27.80002441 v 114.90676757 c 0,60.04805274 -22.24001953,70.79739551 -58.93605176,70.79739551 -43.36803808,0 -61.16005371,-10.74934277 -60.78938672,-70.79739551 v -114.90676757 h -27.80002441 z m 298.979157714,8.15467383 h 116.389435547 v -27.42935742 h -116.389435547 z m 230.776191406,80.43473731 c 19.274683594,12.60267773 58.936051758,13.71467871 78.581402344,1.11200097 18.533349609,-11.86134375 19.274683594,-37.06669921 19.274683594,-54.48804785 v -210.16818457 h -27.429357422 v 210.16818457 c -0.370666993,51.52271192 -41.514703125,40.03203516 -68.944060547,33.3600293 z m 243.749228516,7.78400683 h 27.429357421 v -211.28018554 h -27.429357421 z m 156.642983398,-183.85082812 h 68.944060547 v 183.85082812 h 27.429357422 V 1521.9887959 h 68.944060547 v -27.42935742 h -165.317478516 z m 281.5575048829,45.22137305 c 0,35.58403125 16.3093476562,48.55737597 51.1520449218,48.55737597 h 63.0133886719 c 16.3093476563,0 20.7573515625,7.41333985 20.7573515625,20.38668457 v 25.94668946 c 0,0 -5.5600048828,20.01601757 -20.7573515625,20.01601757 -35.58403124997,0 -106.0107597656,-1.11200097 -106.0107597656,-1.11200097 v 20.38668457 c 13.7146787109,4.4480039 87.8480771484,8.15467383 106.0107597656,8.15467383 20.3866845703,0 48.1867089844,-7.04267286 48.1867089844,-47.445375 v -25.94668946 c 0,-27.80002441 -15.9386806641,-47.81604199 -48.1867089844,-47.81604199 h -63.0133886719 c -13.7146787109,0 -23.7226875,1.11200098 -23.7226875,-21.12801855 v -21.86935254 c 0,-12.60267774 4.4480039063,-24.83468848 23.7226875,-24.83468848 36.3253652344,0 101.1920888672,1.48266797 101.1920888672,1.48266797 v -21.12801856 c -24.8346884765,-3.33600293 -81.9174052734,-7.41333984 -101.1920888672,-7.41333984 -38.1787001953,0 -51.1520449218,21.49868555 -51.1520449218,51.89337891 z m 306.3922851561,42.2560371 c -0.370666992,88.58941114 38.178700195,98.22675293 88.589411133,98.22675293 44.850706055,0 86.736076172,-11.86134375 86.736076172,-98.22675293 v -114.90676757 h -27.800024414 v 114.90676757 c 0,60.04805274 -22.240019531,70.79739551 -58.936051758,70.79739551 -43.368038086,0 -61.160053711,-10.74934277 -60.789386719,-70.79739551 v -114.90676757 h -27.800024414 z"
     id="text25"
     style="font-size:370.667px;font-family:Exo;-inkscape-font-specification:'Exo, Normal';font-variant-ligatures:discretionary-ligatures;font-variant-caps:small-caps;letter-spacing:94px;word-spacing:-1px;white-space:pre;fill:url(#linearGradient25);stroke-width:5;stroke-linecap:square;stroke-linejoin:round"
     inkscape:label="Jiu-Jitsu"
     transform="translate(5238.61840637,-1323.3406665)"
     aria-label="Jiu-Jitsu" /></g></svg>
